:SAMPLES-PER-SECOND 30
:FULLY-SPECIFIED
:DEGREES
596
root  8.01773 40.8794 -2.09657 -114.295 -89.0304 112.339
RightUpLeg  0.747617 -9.28092 -7.25591
RightLeg  5.55888 -3.84799 3.40869
RightFoot  -2.76909 -0.0358142 0.251914
RightToes  0.00048216 0.542163 -0.142577
Spine  7.84701 -0.0317735 -2.16538
Spine1  -2.61358 -0.303632 1.38879
HEad  -4.14681 0.640949 -1.91338
LeftShoulder1  1.07441 -3.27758 -8.31291
LeftArm  -18.8117 8.37074 -3.92198
LeftForeArm  6.30005 0.800897 -1.02948
LeftHand  -0.25398 0.0180481 5.50724
RightShoulder  0.522105 0.396218 5.63638
RightArm  -19.0511 -3.20465 3.02803
RightForeArm  -5.55915 1.65646 3.77433
RightHand  -2.14679 7.01429 -20.3041
LeftUpLeg  2.14192 4.92428 1.35879
LeftLeg  3.08257 17.6876 -3.8769
LeftFoot  -3.99862 -0.0957381 1.86803
LeftToes  1.06246e-005 4.65856e-005 -8.18501e-006
597
root  8.12872 40.8928 -2.19675 -87.6551 -89.031 85.7008
RightUpLeg  0.687275 -9.23126 -7.14896
RightLeg  5.43932 -4.42358 3.37728
RightFoot  -2.64645 -0.0206647 0.0579877
RightToes  0.00048216 0.542163 -0.142577
Spine  7.7934 -0.182896 -2.41544
Spine1  -2.51067 -0.540723 1.82703
HEad  -3.62007 0.669631 -2.03064
LeftShoulder1  1.08502 -3.27361 -8.49691
LeftArm  -18.5349 8.61698 -3.96572
LeftForeArm  6.98697 0.923822 -1.06892
LeftHand  -0.25398 0.0180481 5.50724
RightShoulder  0.51263 0.300141 5.73607
RightArm  -19.105 -3.44087 3.08716
RightForeArm  -5.28116 0.998101 3.61211
RightHand  -2.04966 6.64277 -19.9892
LeftUpLeg  2.06874 4.84381 1.3847
LeftLeg  2.71855 17.3388 -3.93055
LeftFoot  -3.53906 -0.10479 1.84974
LeftToes  1.06246e-005 4.65856e-005 -8.18501e-006
598
root  8.23696 40.9007 -2.27727 -72.2567 -88.9056 70.2869
RightUpLeg  0.584268 -9.26736 -7.10286
RightLeg  5.41606 -4.73167 3.4331
RightFoot  -2.52414 -0.00119078 -0.212346
RightToes  0.00048216 0.542163 -0.142577
Spine  7.753 -0.279457 -2.49933
Spine1  -2.29713 -0.686726 2.07165
HEad  -3.29984 0.605104 -2.15664
LeftShoulder1  1.08846 -3.272 -8.55764
LeftArm  -18.6588 9.0054 -3.9384
LeftForeArm  6.59411 0.705932 -1.00174
LeftHand  -0.25398 0.0180481 5.50724
RightShoulder  0.481836 0.0629822 5.77127
RightArm  -19.1474 -3.65253 3.04644
RightForeArm  -5.13756 0.817904 3.52988
RightHand  -2.0631 6.64627 -20.1081
LeftUpLeg  1.96804 4.77498 1.39443
LeftLeg  2.49443 17.1235 -3.9404
LeftFoot  -3.17704 -0.11266 1.84728
LeftToes  1.06246e-005 4.65856e-005 -8.18501e-006
599
root  8.34627 40.9035 -2.34758 -65.1108 -88.7925 63.0857
RightUpLeg  0.498593 -9.31786 -7.077
RightLeg  5.42612 -4.80741 3.51408
RightFoot  -2.40586 0.0085458 -0.327163
RightToes  0.00048216 0.542163 -0.142577
Spine  7.81949 -0.346925 -2.46928
Spine1  -2.15272 -0.767557 2.12574
HEad  -3.03846 0.515945 -2.14255
LeftShoulder1  1.07431 -3.24079 -8.40598
LeftArm  -18.8972 9.34808 -3.86304
LeftForeArm  5.81958 0.612354 -0.88348
LeftHand  -0.25398 0.0180481 5.50724
RightShoulder  0.455593 -0.135356 5.78849
RightArm  -19.2171 -3.89206 2.98892
RightForeArm  -5.17332 0.890552 3.48911
RightHand  -2.06785 6.63632 -20.1683
LeftUpLeg  1.855 4.771 1.44186
LeftLeg  2.4326 16.958 -3.95543
LeftFoot  -2.9319 -0.117147 1.83495
LeftToes  1.06246e-005 4.65856e-005 -8.18501e-006
600
root  8.45379 40.9024 -2.41246 -64.3234 -88.7475 62.1974
RightUpLeg  0.423392 -9.32266 -7.02093
RightLeg  5.46755 -4.83683 3.5459
RightFoot  -2.34051 0.0149327 -0.392419
RightToes  0.00048216 0.542163 -0.142577
Spine  7.97373 -0.374625 -2.47188
Spine1  -2.12473 -0.816331 2.22872
HEad  -2.81987 0.489171 -2.05063
LeftShoulder1  1.04773 -3.14046 -8.22714
LeftArm  -18.9592 9.56621 -3.67753
LeftForeArm  5.37864 0.715644 -0.811408
LeftHand  -0.25398 0.0180481 5.50724
RightShoulder  0.45392 -0.14936 5.79596
RightArm  -19.264 -4.11466 2.84898
RightForeArm  -5.24917 1.04361 3.47628
RightHand  -2.00741 6.42151 -19.9394
LeftUpLeg  1.78292 4.83886 1.54093
LeftLeg  2.44835 16.856 -4.00341
LeftFoot  -2.80088 -0.116007 1.78535
LeftToes  1.06246e-005 4.65856e-005 -8.18501e-006
601
root  8.55565 40.8993 -2.4682 -69.2498 -88.7537 67.0006
RightUpLeg  0.311522 -9.30694 -6.95551
RightLeg  5.58522 -4.83022 3.53275
RightFoot  -2.30849 0.026827 -0.549101
RightToes  0.00048216 0.542163 -0.142577
Spine  8.11256 -0.328597 -2.56711
Spine1  -2.09914 -0.824117 2.51618
HEad  -2.64444 0.438764 -1.98705
LeftShoulder1  1.03571 -3.06332 -8.22809
LeftArm  -18.8206 9.71267 -3.36333
LeftForeArm  5.22523 0.748676 -0.832584
LeftHand  -0.25398 0.0180481 5.50724
RightShoulder  0.460103 -0.084498 5.71104
RightArm  -19.2758 -4.2257 2.65436
RightForeArm  -5.18282 1.16834 3.4736
RightHand  -1.95459 6.26139 -19.6892
LeftUpLeg  1.75883 4.91137 1.62916
LeftLeg  2.4682 16.8841 -4.05294
LeftFoot  -2.73047 -0.110166 1.69453
LeftToes  1.06246e-005 4.65856e-005 -8.18501e-006
602
root  8.64971 40.8953 -2.50849 -76.0698 -88.7451 73.7128
RightUpLeg  0.150487 -9.30866 -6.9267
RightLeg  5.78169 -4.72286 3.5116
RightFoot  -2.2743 0.0374961 -0.689074
RightToes  0.00048216 0.542163 -0.142577
Spine  8.14731 -0.243008 -2.64037
Spine1  -1.98375 -0.790236 2.80303
HEad  -2.45479 0.24712 -1.92526
LeftShoulder1  1.04782 -3.1006 -8.33357
LeftArm  -18.658 9.83764 -3.03856
LeftForeArm  5.02363 0.571245 -0.904938
LeftHand  -0.25398 0.0180481 5.50724
RightShoulder  0.451862 -0.0961332 5.48976
RightArm  -19.3175 -4.21871 2.58542
RightForeArm  -5.07095 1.23386 3.46106
RightHand  -1.96041 6.28565 -19.706
LeftUpLeg  1.71088 4.91152 1.63868
LeftLeg  2.52696 17.0266 -4.03393
LeftFoot  -2.68131 -0.102933 1.58208
LeftToes  1.06246e-005 4.65856e-005 -8.18501e-006
603
root  8.73427 40.89 -2.53296 -80.8423 -88.7152 78.4115
RightUpLeg  -0.0270122 -9.32704 -6.93024
RightLeg  5.99455 -4.58138 3.50237
RightFoot  -2.25352 0.0416499 -0.728519
RightToes  0.00048216 0.542163 -0.142577
Spine  8.08197 -0.190489 -2.57142
Spine1  -1.82373 -0.746568 2.87486
HEad  -2.2538 -0.00252503 -1.8167
LeftShoulder1  1.06009 -3.17518 -8.34245
LeftArm  -18.736 9.90523 -2.84193
LeftForeArm  5.09033 0.356729 -0.883245
LeftHand  -0.25398 0.0180481 5.50724
RightShoulder  0.437993 -0.145958 5.24683
RightArm  -19.3409 -4.15295 2.67629
RightForeArm  -5.13846 1.28582 3.469
RightHand  -1.98444 6.2965 -19.9208
LeftUpLeg  1.60233 4.84971 1.59073
LeftLeg  2.6524 17.1873 -3.94474
LeftFoot  -2.66595 -0.0958272 1.4716
LeftToes  1.06246e-005 4.65856e-005 -8.18501e-006
604
root  8.81109 40.8843 -2.54861 -84.7325 -88.7073 82.2239
RightUpLeg  -0.166223 -9.33602 -6.91964
RightLeg  6.16658 -4.49379 3.49444
RightFoot  -2.25203 0.0451671 -0.763813
RightToes  0.00048216 0.542163 -0.142577
Spine  8.04697 -0.174743 -2.40717
Spine1  -1.73816 -0.713413 2.81763
HEad  -2.12004 -0.0906057 -1.72959
LeftShoulder1  1.04756 -3.13621 -8.23501
LeftArm  -19.0844 9.85124 -2.82012
LeftForeArm  5.71422 0.268372 -0.727808
LeftHand  -0.25398 0.0180481 5.50724
RightShoulder  0.436834 -0.124105 5.11309
RightArm  -19.2139 -4.03388 2.74943
RightForeArm  -5.24728 1.35968 3.53862
RightHand  -1.98489 6.23454 -20.0254
LeftUpLeg  1.51077 4.81767 1.57418
LeftLeg  2.78708 17.2962 -3.86942
LeftFoot  -2.69618 -0.0898796 1.37914
LeftToes  1.06246e-005 4.65856e-005 -8.18501e-006
605
root  8.88704 40.8793 -2.56206 -89.7995 -88.7269 87.1457
RightUpLeg  -0.217834 -9.31281 -6.87198
RightLeg  6.2928 -4.44164 3.47039
RightFoot  -2.23273 0.0503285 -0.844004
RightToes  0.00048216 0.542163 -0.142577
Spine  8.19038 -0.146881 -2.26501
Spine1  -1.77634 -0.681414 2.82853
HEad  -2.09663 0.049077 -1.72375
LeftShoulder1  1.01881 -2.99303 -8.1272
LeftArm  -19.2452 9.68876 -2.95608
LeftForeArm  5.94369 0.150354 -0.70047
LeftHand  -0.25398 0.0180481 5.50724
RightShoulder  0.445693 -0.0514997 5.09624
RightArm  -19.0016 -3.84621 2.69911
RightForeArm  -5.01853 1.43871 3.6284
RightHand  -1.97746 6.29568 -19.8551
LeftUpLeg  1.51996 4.86589 1.62662
LeftLeg  2.88911 17.3499 -3.8529
LeftFoot  -2.73687 -0.0865402 1.32722
LeftToes  1.06246e-005 4.65856e-005 -8.18501e-006
